<svg id="Layer_1" data-name="Layer 1" xmlns="http://www.w3.org/2000/svg" viewBox="0 0 1312 995"><defs><style>.cls-1,.cls-15,.cls-25,.cls-4,.cls-44,.cls-6,.cls-8,.cls-9{fill:#fff;}.cls-10,.cls-12,.cls-13,.cls-2,.cls-23,.cls-3,.cls-5{fill:none;}.cls-15,.cls-2,.cls-3,.cls-4{stroke:#15e1ff;}.cls-10,.cls-12,.cls-13,.cls-15,.cls-2,.cls-23,.cls-25,.cls-3,.cls-4,.cls-44,.cls-5,.cls-6,.cls-70,.cls-8,.cls-9{stroke-miterlimit:10;}.cls-12,.cls-15,.cls-3,.cls-44,.cls-5,.cls-70{stroke-width:2px;}.cls-10,.cls-13,.cls-25,.cls-44,.cls-5,.cls-6,.cls-70,.cls-9{stroke:#000;}.cls-17,.cls-54,.cls-7{font-size:18px;}.cls-11,.cls-14,.cls-17,.cls-26,.cls-30,.cls-35,.cls-36,.cls-38,.cls-46,.cls-47,.cls-51,.cls-52,.cls-53,.cls-54,.cls-55,.cls-7,.cls-72,.cls-74{font-family:MyriadPro-Regular, Myriad Pro;}.cls-7{letter-spacing:0em;}.cls-12,.cls-23,.cls-8{stroke:#9b0400;}.cls-10,.cls-9{stroke-width:3px;}.cls-11,.cls-14,.cls-16,.cls-22,.cls-26,.cls-30,.cls-35,.cls-36,.cls-38,.cls-46,.cls-72{font-size:24px;}.cls-11,.cls-22,.cls-31{letter-spacing:0em;}.cls-14,.cls-16,.cls-27{letter-spacing:0em;}.cls-16,.cls-22,.cls-56,.cls-57,.cls-58,.cls-59,.cls-71,.cls-78{font-family:Oxygen-Regular, Oxygen;}.cls-17{letter-spacing:0.01em;}.cls-18,.cls-54,.cls-56{letter-spacing:0em;}.cls-19{letter-spacing:0.02em;}.cls-20{letter-spacing:0em;}.cls-21{letter-spacing:0.03em;}.cls-24,.cls-51{fill:#9b0400;}.cls-25{stroke-width:1.5px;}.cls-26,.cls-37{letter-spacing:0.01em;}.cls-28{letter-spacing:-0.01em;}.cls-29{letter-spacing:0em;}.cls-30{letter-spacing:-0.03em;}.cls-32{fill:#15e1ff;}.cls-33{letter-spacing:-0.03em;}.cls-34{letter-spacing:-0.01em;}.cls-35,.cls-73{letter-spacing:0.01em;}.cls-36,.cls-39{letter-spacing:0.01em;}.cls-40,.cls-46{letter-spacing:0em;}.cls-41{letter-spacing:-0.05em;}.cls-42{letter-spacing:-0.07em;}.cls-43{letter-spacing:0.01em;}.cls-45{letter-spacing:0em;}.cls-47,.cls-51,.cls-52,.cls-71{font-size:21px;}.cls-47{letter-spacing:0em;}.cls-48{letter-spacing:0.02em;}.cls-49{letter-spacing:0em;}.cls-50{letter-spacing:0em;}.cls-51,.cls-52,.cls-71{letter-spacing:0em;}.cls-52,.cls-54,.cls-55{writing-mode:tb;text-orientation:upright;glyph-orientation-vertical:0deg;}.cls-53{font-size:23px;letter-spacing:0em;}.cls-55,.cls-57{font-size:22px;}.cls-55,.cls-67{letter-spacing:0em;}.cls-56{font-size:27px;}.cls-57{letter-spacing:0em;}.cls-58{font-size:20px;letter-spacing:0em;}.cls-59{font-size:19px;letter-spacing:0em;}.cls-60{letter-spacing:0em;}.cls-61{letter-spacing:0em;}.cls-62{letter-spacing:0em;}.cls-63{letter-spacing:0em;}.cls-64{letter-spacing:0em;}.cls-65{letter-spacing:-0.01em;}.cls-66{letter-spacing:0em;}.cls-68{letter-spacing:-0.01em;}.cls-69{letter-spacing:0em;}.cls-72{letter-spacing:0.01em;}.cls-74{font-size:35px;letter-spacing:-0.01em;}.cls-75{letter-spacing:0em;}.cls-76{letter-spacing:0em;}.cls-77{letter-spacing:-0.01em;}.cls-78{font-size:14px;letter-spacing:0em;}.cls-79{letter-spacing:-0.01em;}</style></defs><title>Artboard 1</title><rect class="cls-1" x="-21" y="-13" width="1356" height="1018"/><line class="cls-2" x1="1161.89" y1="431.29" x2="1161.89" y2="671.62"/><line class="cls-2" x1="1096.5" y1="654.5" x2="1096.5" y2="448"/><line class="cls-3" x1="986.06" y1="468.57" x2="986.06" y2="636"/><line class="cls-4" x1="955" y1="489.96" x2="955" y2="636"/><line class="cls-5" x1="754.22" y1="724.59" x2="802.16" y2="724.59"/><circle cx="754.25" cy="724.59" r="0.75"/><path d="M805.78,724.59a18.13,18.13,0,0,0-5.13,2.85l1-2.85-1-2.85A18.12,18.12,0,0,0,805.78,724.59Z"/><rect class="cls-6" x="209.67" y="593.11" width="30.14" height="80.82"/><text class="cls-7" transform="translate(218.35 639.08) scale(0.58)">PC</text><ellipse class="cls-4" cx="533.5" cy="453.86" rx="45.03" ry="103.86"/><rect class="cls-6" x="929.12" y="636" width="113.88" height="172.26"/><ellipse class="cls-8" cx="786.71" cy="834.08" rx="20.79" ry="44.21"/><line class="cls-9" x1="365.67" y1="724.72" x2="422.33" y2="724.72"/><line class="cls-10" x1="422.33" y1="577.72" x2="422.33" y2="831.5"/><line class="cls-9" x1="421.33" y1="577.72" x2="532.5" y2="577.72"/><rect class="cls-6" x="567.83" y="612.67" width="128.5" height="166.67"/><rect class="cls-6" x="113" y="432.67" width="20.5" height="76.67" rx="9.75" ry="9.75" transform="translate(594.25 347.75) rotate(90)"/><line class="cls-10" x1="558.78" y1="633.11" x2="422.33" y2="633.11"/><path d="M567.83,633.11c-4.26-1.58-9.54-4.28-12.82-7.13l2.58,7.13L555,640.24C558.29,637.39,563.57,634.69,567.83,633.11Z"/><line class="cls-10" x1="558.78" y1="671.07" x2="422.33" y2="671.07"/><path d="M567.83,671.07c-4.26-1.58-9.54-4.28-12.82-7.13l2.58,7.13L555,678.2C558.29,675.34,563.57,672.65,567.83,671.07Z"/><line class="cls-10" x1="486.33" y1="671.07" x2="486.33" y2="713.93"/><circle cx="486.33" cy="671.07" r="3.95"/><line class="cls-10" x1="511.75" y1="713" x2="485.08" y2="713"/><line class="cls-10" x1="513" y1="769.58" x2="422.33" y2="769.93"/><line class="cls-10" x1="532.5" y1="577.72" x2="532.5" y2="557.72"/><line class="cls-10" x1="511.75" y1="741" x2="485.08" y2="741"/><text class="cls-11" transform="translate(468.91 744.55) scale(0.58)">31</text><rect class="cls-6" x="603.58" y="803" width="57" height="57"/><line class="cls-10" x1="422.33" y1="831.5" x2="603.58" y2="831.5"/><line class="cls-10" x1="544" y1="831.5" x2="544" y2="882"/><circle cx="544" cy="831.5" r="5.64"/><line class="cls-10" x1="728" y1="882" x2="544" y2="882"/><rect class="cls-6" x="747.64" y="702.62" width="20.5" height="76.67" rx="9.75" ry="9.75"/><line class="cls-10" x1="660.58" y1="831.5" x2="730" y2="831.5"/><line class="cls-10" x1="730" y1="831.5" x2="730" y2="769.76"/><line class="cls-10" x1="730" y1="769.76" x2="747.64" y2="769.53"/><line class="cls-5" x1="747.64" y1="720" x2="696.33" y2="720"/><line class="cls-5" x1="696.33" y1="633.11" x2="802.16" y2="633.11"/><path d="M805.78,633.11a18.13,18.13,0,0,0-5.13,2.85l1-2.85-1-2.85A18.12,18.12,0,0,0,805.78,633.11Z"/><line class="cls-10" x1="728" y1="882" x2="728" y2="851.08"/><line class="cls-10" x1="759.49" y1="853.08" x2="727" y2="853.08"/><path d="M764.92,853.08a27.2,27.2,0,0,1-7.69-4.28l1.55,4.28-1.55,4.28A27.17,27.17,0,0,1,764.92,853.08Z"/><line class="cls-12" x1="807.5" y1="834.08" x2="818.5" y2="834.08"/><line class="cls-13" x1="874" y1="704.61" x2="874" y2="838.5"/><line class="cls-12" x1="818.5" y1="717.89" x2="818.5" y2="834.08"/><path id="path1872" class="cls-6" d="M806.36,740.95V696.37l11.13-21.14-11.7-22.61V609.5l80.11,39.26v53.86l-79.52,38.32"/><rect class="cls-6" x="850.87" y="814.17" width="15.46" height="57.83" rx="7.35" ry="7.35"/><line class="cls-10" x1="422.33" y1="831.5" x2="422.33" y2="901.5"/><line class="cls-5" x1="422.33" y1="901.5" x2="834.5" y2="901.5"/><line class="cls-5" x1="834.5" y1="901.5" x2="834.5" y2="866.5"/><line class="cls-5" x1="834.5" y1="866.5" x2="847.25" y2="866.5"/><path d="M850.87,866.5a18.13,18.13,0,0,0-5.13,2.85l1-2.85-1-2.85A18.12,18.12,0,0,0,850.87,866.5Z"/><line class="cls-5" x1="847.25" y1="824.5" x2="837.5" y2="824.5"/><path d="M850.87,824.5a18.13,18.13,0,0,1-5.13-2.85l1,2.85-1,2.85A18.12,18.12,0,0,1,850.87,824.5Z"/><text class="cls-14" transform="translate(821.09 827.55) scale(0.58)">16</text><line class="cls-13" x1="718" y1="719.46" x2="718" y2="785.46"/><circle cx="718" cy="719.46" r="3.76"/><line class="cls-13" x1="923.08" y1="786" x2="718" y2="786"/><path d="M929.12,786a30.22,30.22,0,0,1-8.55-4.76l1.72,4.76-1.72,4.75A30.19,30.19,0,0,1,929.12,786Z"/><line class="cls-13" x1="866.33" y1="838.5" x2="874" y2="838.5"/><line class="cls-15" x1="786.71" y1="878.29" x2="786.71" y2="895"/><line class="cls-15" x1="705" y1="895" x2="786.71" y2="895"/><line class="cls-15" x1="705" y1="895" x2="705" y2="531"/><line class="cls-13" x1="885.89" y1="683" x2="923.08" y2="683"/><path d="M929.12,683a30.22,30.22,0,0,0-8.55,4.76l1.72-4.76-1.72-4.75A30.19,30.19,0,0,0,929.12,683Z"/><line class="cls-13" x1="1043" y1="683" x2="1068" y2="683"/><rect class="cls-6" x="1068" y="654.5" width="57" height="57"/><line class="cls-3" x1="705" y1="531" x2="562.91" y2="532.5"/><text class="cls-16" transform="translate(574 527.24) scale(0.58)">ALUOp</text><rect class="cls-6" x="1151.64" y="671.62" width="20.5" height="76.67" rx="9.75" ry="9.75"/><line class="cls-13" x1="907.51" y1="683" x2="907.51" y2="838.5"/><circle cx="907.51" cy="683" r="3.76"/><line class="cls-13" x1="1138" y1="838.5" x2="907.51" y2="838.5"/><line class="cls-13" x1="1138" y1="838.5" x2="1138" y2="737.13"/><line class="cls-13" x1="1138" y1="737.13" x2="1145.61" y2="737.13"/><path d="M1151.64,737.13a30.22,30.22,0,0,0-8.55,4.76l1.72-4.76-1.72-4.75A30.2,30.2,0,0,0,1151.64,737.13Z"/><line class="cls-13" x1="1125" y1="683" x2="1145.61" y2="683"/><path d="M1151.64,683a30.22,30.22,0,0,0-8.55,4.76l1.72-4.76-1.72-4.75A30.2,30.2,0,0,0,1151.64,683Z"/><rect class="cls-6" x="278" y="623" width="102.67" height="160.09"/><text class="cls-17" transform="translate(314.65 764.39) scale(0.58)">I<tspan class="cls-18" x="4.55" y="0">nstru</tspan><tspan class="cls-19" x="43.79" y="0">c</tspan><tspan class="cls-18" x="52.16" y="0">ti</tspan><tspan class="cls-20" x="62.48" y="0">t</tspan><tspan class="cls-18" x="68.4" y="0">on </tspan><tspan class="cls-18"><tspan x="12.12" y="13.72">memo</tspan><tspan class="cls-21" x="61.33" y="13.72">r</tspan><tspan x="67.74" y="13.72">y</tspan></tspan></text><text class="cls-17" transform="translate(329.55 722.45) scale(0.58)">I<tspan class="cls-18" x="4.55" y="0">nstru</tspan><tspan class="cls-19" x="43.79" y="0">c</tspan><tspan class="cls-18" x="52.16" y="0">tion</tspan><tspan class="cls-18"><tspan x="34.72" y="13.72" xml:space="preserve"> [31-0]</tspan></tspan></text><path id="path1872-2" data-name="path1872" class="cls-6" d="M302.21,273.74V234.48l32.66-18.86-33.08-19.68V158l58.88,34.57V240l-58.45,33.75"/><line class="cls-13" x1="239.81" y1="651" x2="271.96" y2="651"/><path d="M278,651a30.22,30.22,0,0,0-8.55,4.76l1.72-4.76-1.72-4.75A30.2,30.2,0,0,0,278,651Z"/><line class="cls-13" x1="274.5" y1="253" x2="295.75" y2="253"/><path d="M301.79,253a30.22,30.22,0,0,0-8.55,4.76L295,253l-1.72-4.75A30.2,30.2,0,0,0,301.79,253Z"/><text class="cls-22" transform="translate(262 257.97) scale(0.58)">4</text><line class="cls-13" x1="256" y1="650" x2="256" y2="176"/><circle cx="256" cy="650" r="3.76"/><line class="cls-13" x1="295.75" y1="176" x2="256" y2="176"/><path d="M301.79,176a30.22,30.22,0,0,1-8.55-4.76L295,176l-1.72,4.75A30.2,30.2,0,0,1,301.79,176Z"/><line class="cls-8" x1="828.25" y1="856.75" x2="828.25" y2="942"/><line class="cls-8" x1="63" y1="942" x2="828.25" y2="942"/><line class="cls-8" x1="63" y1="942" x2="63" y2="471"/><line class="cls-8" x1="63" y1="471" x2="84.92" y2="470.5"/><line class="cls-13" x1="741" y1="633.11" x2="741" y2="322"/><circle cx="741" cy="633.11" r="3.76"/><line class="cls-13" x1="741" y1="322" x2="99.7" y2="322"/><line class="cls-13" x1="99.7" y1="322" x2="99.7" y2="454.71"/><path d="M99.7,460.75a30.22,30.22,0,0,0-4.76-8.55l4.76,1.72,4.75-1.72A30.2,30.2,0,0,0,99.7,460.75Z"/><line class="cls-8" x1="828.25" y1="856.75" x2="804.56" y2="856.75"/><rect class="cls-6" x="512.64" y="702.62" width="20.5" height="76.67" rx="9.75" ry="9.75"/><line class="cls-23" x1="400" y1="942" x2="400" y2="593.11"/><circle class="cls-24" cx="400" cy="942" r="3.76"/><path class="cls-25" d="M632.08,587.11c0-8.92-8.76-16.15-19.56-16.15H586.25v32.3h26.28C623.33,603.26,632.08,596,632.08,587.11Z"/><line class="cls-23" x1="400" y1="593.11" x2="582.68" y2="593.11"/><circle class="cls-24" cx="582.49" cy="593.11" r="3.76"/><line class="cls-4" x1="551.28" y1="549.3" x2="616.17" y2="549.3"/><line class="cls-4" x1="578.53" y1="582" x2="586.25" y2="582"/><text class="cls-26" transform="translate(562.28 545.31) scale(0.58)">R<tspan class="cls-27" x="13.1" y="0">eg</tspan><tspan class="cls-28" x="38.74" y="0">W</tspan><tspan x="58.75" y="0">r</tspan><tspan class="cls-27" x="66.79" y="0">i</tspan><tspan class="cls-29" x="72.5" y="0">t</tspan><tspan class="cls-27" x="80.4" y="0">e</tspan></text><line class="cls-2" x1="616.17" y1="549.3" x2="616.17" y2="557.72"/><line class="cls-2" x1="616.17" y1="557.72" x2="578.53" y2="557.72"/><line class="cls-2" x1="578.53" y1="557.72" x2="578.53" y2="582"/><line class="cls-6" x1="632.08" y1="587.11" x2="638.05" y2="587.11"/><line class="cls-6" x1="638.05" y1="587.11" x2="638.05" y2="612.67"/><line class="cls-4" x1="515.72" y1="549.3" x2="411" y2="549.3"/><line class="cls-4" x1="411" y1="549.3" x2="411" y2="924"/><line class="cls-4" x1="411" y1="924" x2="858.6" y2="924"/><line class="cls-4" x1="858.22" y1="872" x2="858.6" y2="924"/><text class="cls-30" transform="translate(479.47 543.52) scale(0.58)">L<tspan class="cls-31" x="10.56" y="0">UI</tspan></text><line class="cls-3" x1="501.81" y1="527.64" x2="394" y2="527.64"/><line class="cls-3" x1="394" y1="527.64" x2="394" y2="795"/><line class="cls-3" x1="394" y1="795" x2="522.89" y2="795"/><line class="cls-3" x1="522.89" y1="795" x2="523.39" y2="779.28"/><line class="cls-6" x1="360.67" y1="206" x2="915.91" y2="206"/><line class="cls-10" x1="730" y1="769.76" x2="730" y2="278"/><circle cx="730" cy="769.76" r="4.51"/><ellipse class="cls-6" cx="813.56" cy="278" rx="26.85" ry="39.81"/><line class="cls-5" x1="730" y1="278" x2="774.64" y2="278"/><path d="M786.71,278c-5.68,2.11-12.73,5.7-17.09,9.51l3.44-9.51-3.44-9.51C774,272.3,781,275.89,786.71,278Z"/><path id="path1872-3" data-name="path1872" class="cls-6" d="M915.91,299.38V260.12l32.66-18.86-33.08-19.68v-38l58.88,34.57v47.43l-58.45,33.75"/><line class="cls-13" x1="840.41" y1="278" x2="915.91" y2="278"/><rect class="cls-6" x="1022.75" y="162.62" width="20.5" height="76.67" rx="9.75" ry="9.75"/><line class="cls-13" x1="870.17" y1="206" x2="870.17" y2="176"/><circle cx="870.17" cy="206" r="3.76"/><line class="cls-13" x1="870.17" y1="176" x2="1016.72" y2="176"/><path d="M1022.75,176a30.22,30.22,0,0,0-8.55,4.76l1.72-4.76-1.72-4.75A30.2,30.2,0,0,0,1022.75,176Z"/><line class="cls-13" x1="974.37" y1="229" x2="1016.72" y2="229"/><path d="M1022.75,229a30.22,30.22,0,0,0-8.55,4.76l1.72-4.76-1.72-4.75A30.2,30.2,0,0,0,1022.75,229Z"/><line class="cls-10" x1="387" y1="724.59" x2="387" y2="116"/><ellipse class="cls-6" cx="582.56" cy="116" rx="26.85" ry="39.81"/><line class="cls-10" x1="387" y1="116" x2="555.71" y2="116"/><line class="cls-13" x1="442.89" y1="206" x2="443.04" y2="160"/><circle cx="442.89" cy="206" r="3.76" transform="translate(235.45 648.22) rotate(-89.81)"/><line class="cls-13" x1="609.41" y1="116" x2="1068" y2="116"/><rect class="cls-6" x="1082.75" y="162.62" width="20.5" height="76.67" rx="9.75" ry="9.75"/><line class="cls-13" x1="1068" y1="116" x2="1068" y2="176"/><line class="cls-13" x1="1068" y1="176" x2="1076.72" y2="176"/><path d="M1082.75,176a30.22,30.22,0,0,0-8.55,4.76l1.72-4.76-1.72-4.75A30.2,30.2,0,0,0,1082.75,176Z"/><line class="cls-13" x1="1043.25" y1="229.53" x2="1076.72" y2="229.53"/><path d="M1082.75,229.53a30.22,30.22,0,0,0-8.55,4.76l1.72-4.76-1.72-4.75A30.2,30.2,0,0,0,1082.75,229.53Z"/><rect class="cls-6" x="1151.64" y="863.17" width="20.5" height="76.67" rx="9.75" ry="9.75"/><line class="cls-13" x1="1172.14" y1="711.5" x2="1199.05" y2="711.5"/><line class="cls-13" x1="1199.05" y1="711.5" x2="1199.05" y2="878.29"/><line class="cls-13" x1="1199.05" y1="878.29" x2="1178.18" y2="878.29"/><path d="M1172.14,878.29a30.22,30.22,0,0,0,8.55-4.76l-1.72,4.76,1.72,4.75A30.2,30.2,0,0,0,1172.14,878.29Z"/><line class="cls-13" x1="373" y1="206" x2="373" y2="66.67"/><circle cx="373" cy="206" r="3.76"/><line class="cls-13" x1="373" y1="66.67" x2="1261" y2="66.67"/><line class="cls-13" x1="1261" y1="66.67" x2="1261" y2="924"/><line class="cls-13" x1="1261" y1="924" x2="1178.18" y2="924"/><path d="M1172.14,924a30.22,30.22,0,0,0,8.55-4.76L1179,924l1.72,4.75A30.2,30.2,0,0,0,1172.14,924Z"/><line class="cls-2" x1="394" y1="795" x2="394" y2="967"/><circle class="cls-32" cx="394" cy="795" r="3.76"/><line class="cls-2" x1="394" y1="967" x2="1161.89" y2="967"/><line class="cls-2" x1="1161.89" y1="967" x2="1162.39" y2="939.83"/><line class="cls-10" x1="532.5" y1="726.4" x2="558.78" y2="726.4"/><path d="M567.83,726.4c-4.26,1.58-9.54,4.28-12.82,7.13l2.58-7.13L555,719.26C558.29,722.12,563.57,724.82,567.83,726.4Z"/><line class="cls-5" x1="1151.64" y1="901.5" x2="1131.56" y2="901.5"/><line class="cls-5" x1="1131.56" y1="901.5" x2="1131.56" y2="953.42"/><line class="cls-5" x1="1131.56" y1="953.42" x2="523.14" y2="953.42"/><line class="cls-5" x1="523.14" y1="953.42" x2="523.14" y2="814.17"/><line class="cls-5" x1="523.14" y1="814.17" x2="551.28" y2="814.17"/><line class="cls-5" x1="551.28" y1="814.17" x2="551.28" y2="757.6"/><line class="cls-5" x1="551.28" y1="757.6" x2="559.38" y2="757.6"/><path d="M567.83,757.6a42.31,42.31,0,0,0-12,6.66l2.41-6.66-2.41-6.66A42.27,42.27,0,0,0,567.83,757.6Z"/><line class="cls-4" x1="571.94" y1="510.98" x2="757.89" y2="510.98"/><line class="cls-4" x1="757.89" y1="510.98" x2="757.89" y2="702.62"/><text class="cls-14" transform="translate(578.4 507.01) scale(0.58)">A<tspan class="cls-33" x="14.78" y="0">L</tspan><tspan x="25.34" y="0">US</tspan><tspan class="cls-34" x="52.9" y="0">r</tspan><tspan x="60.6" y="0">c</tspan></text><text class="cls-35" transform="translate(449.81 522.01) scale(0.58)">R<tspan class="cls-31" x="13.1" y="0">egDst</tspan></text><line class="cls-4" x1="575.73" y1="489.96" x2="955" y2="489.96"/><text class="cls-36" transform="translate(578.52 487.34) scale(0.58)">M<tspan class="cls-27" x="19.54" y="0">em</tspan><tspan class="cls-28" x="51.77" y="0">W</tspan><tspan class="cls-37" x="71.78" y="0">r</tspan><tspan class="cls-27" x="79.82" y="0">i</tspan><tspan class="cls-29" x="85.54" y="0">t</tspan><tspan class="cls-27" x="93.43" y="0">e</tspan></text><line class="cls-3" x1="578.07" y1="468.57" x2="986.06" y2="468.57"/><text class="cls-38" transform="translate(580.32 465.67) scale(0.58)"><tspan class="cls-39">M</tspan><tspan class="cls-27" x="19.54" y="0">emD</tspan><tspan x="67.85" y="0">a</tspan><tspan class="cls-40" x="79.41" y="0">ta</tspan></text><line class="cls-4" x1="578.53" y1="448" x2="1096.5" y2="448"/><text class="cls-14" transform="translate(580.64 444.01) scale(0.58)">Unsi<tspan class="cls-29" x="44.35" y="0">g</tspan><tspan x="57.72" y="0">ned</tspan></text><line class="cls-4" x1="577.46" y1="431.29" x2="1161.89" y2="431.29"/><text class="cls-36" transform="translate(579.24 426.3) scale(0.58)">M<tspan class="cls-27" x="19.54" y="0">e</tspan><tspan class="cls-41" x="31.66" y="0">m</tspan><tspan class="cls-42" x="50.57" y="0">T</tspan><tspan class="cls-40" x="60.89" y="0">o</tspan><tspan class="cls-43" x="74.16" y="0">R</tspan><tspan class="cls-40" x="87.26" y="0">eg</tspan></text><path class="cls-44" d="M1003.6,363.44H992.29a40,40,0,0,1,0,41.57h11.32a52.45,52.45,0,0,0,41.77-20.79A52.45,52.45,0,0,0,1003.6,363.44Z"/><line class="cls-2" x1="574.9" y1="413" x2="917.5" y2="413"/><line class="cls-2" x1="885.89" y1="661.32" x2="901" y2="661.32"/><line class="cls-2" x1="901" y1="661.32" x2="901" y2="359"/><line class="cls-2" x1="901" y1="396" x2="918.25" y2="396"/><circle class="cls-32" cx="901" cy="396" r="1.88"/><line class="cls-2" x1="901" y1="359" x2="914.68" y2="359"/><circle class="cls-32" cx="914.49" cy="359" r="3.76"/><path class="cls-25" d="M964.08,351c0-8.92-8.76-16.15-19.56-16.15H918.25v32.3h26.28C955.33,367.13,964.08,359.9,964.08,351Z"/><text class="cls-14" transform="translate(575.26 411.64) scale(0.58)">B<tspan class="cls-45" x="13.1" y="0">r</tspan><tspan x="20.93" y="0">anch</tspan></text><path class="cls-25" d="M964.08,401.89c0-8.92-8.76-16.15-19.56-16.15H918.25V418h26.28C955.33,418,964.08,410.81,964.08,401.89Z"/><line class="cls-2" x1="571.94" y1="399.74" x2="873" y2="399.74"/><line class="cls-2" x1="873" y1="399.74" x2="873" y2="344"/><line class="cls-2" x1="873" y1="344" x2="918.25" y2="344"/><text class="cls-14" transform="translate(572.56 398.03) scale(0.58)">BNE</text><line class="cls-6" x1="964.08" y1="350.98" x2="977.5" y2="350.98"/><line class="cls-13" x1="977.5" y1="350.98" x2="977.5" y2="371.87"/><line class="cls-13" x1="977.5" y1="371.87" x2="996.14" y2="371.87"/><line class="cls-13" x1="964.08" y1="401.89" x2="977.5" y2="401.89"/><line class="cls-13" x1="977.5" y1="401.89" x2="977.5" y2="391"/><line class="cls-13" x1="977.5" y1="391" x2="997.53" y2="391"/><line class="cls-13" x1="1033.5" y1="239.28" x2="1033.5" y2="337.5"/><line class="cls-13" x1="1033.5" y1="337.5" x2="1063" y2="337.5"/><line class="cls-13" x1="1063" y1="337.5" x2="1063" y2="384.23"/><line class="cls-13" x1="1045.38" y1="384.23" x2="1063" y2="384.23"/><line class="cls-2" x1="566.91" y1="384.23" x2="852.5" y2="384.23"/><line class="cls-2" x1="852.5" y1="384.23" x2="852.5" y2="314"/><line class="cls-2" x1="852.5" y1="314" x2="1093" y2="314"/><line class="cls-2" x1="1093" y1="314" x2="1093" y2="239.28"/><text class="cls-46" transform="translate(567.82 379.49) scale(0.58)">Jump</text><line class="cls-6" x1="1103.25" y1="200.95" x2="1162.14" y2="200.95"/><line class="cls-13" x1="1162.14" y1="200.95" x2="1162.14" y2="29.62"/><line class="cls-13" x1="1162.14" y1="29.62" x2="140.11" y2="29.62"/><line class="cls-13" x1="140.11" y1="29.62" x2="140.11" y2="454.71"/><path d="M140.11,460.75a30.22,30.22,0,0,0-4.76-8.55l4.76,1.72,4.75-1.72A30.2,30.2,0,0,0,140.11,460.75Z"/><line class="cls-13" x1="123.25" y1="481.19" x2="123.25" y2="636"/><line class="cls-13" x1="123.25" y1="636" x2="203.64" y2="636"/><path d="M209.67,636a30.22,30.22,0,0,0-8.55,4.76l1.72-4.76-1.72-4.75A30.2,30.2,0,0,0,209.67,636Z"/><line class="cls-2" x1="1096.5" y1="633.11" x2="1055.5" y2="633.11"/><circle class="cls-32" cx="1096.5" cy="633.11" r="3.76"/><line class="cls-4" x1="1055.5" y1="633.11" x2="1055.5" y2="975"/><line class="cls-4" x1="1055.5" y1="975" x2="632.08" y2="975"/><line class="cls-4" x1="632.08" y1="975" x2="632.08" y2="860"/><text class="cls-47" transform="translate(1074.33 686.32) scale(0.58)">e<tspan class="cls-48" x="10.54" y="0">x</tspan><tspan class="cls-49" x="20.62" y="0">t</tspan><tspan class="cls-50" x="27.53" y="0">ender</tspan></text><text class="cls-47" transform="translate(610.58 832.31) scale(0.58)">e<tspan class="cls-48" x="10.54" y="0">x</tspan><tspan class="cls-49" x="20.62" y="0">t</tspan><tspan class="cls-50" x="27.53" y="0">ender</tspan></text><text class="cls-51" transform="translate(812.06 851.92) scale(0.58)">jr</text><text class="cls-52" transform="translate(1162.66 683.59) scale(0.58)">1mux0</text><text class="cls-52" transform="translate(1033.92 167.98) scale(0.58)">0<tspan x="6" y="21.08"> </tspan><tspan x="0" y="25.62">mux</tspan><tspan x="6" y="88.87"> </tspan><tspan x="0" y="93.41">1</tspan></text><text class="cls-52" transform="translate(1093.92 171.27) scale(0.58)">1mux0</text><text class="cls-53" transform="translate(96.41 474.42) scale(0.58)">1 m u x 0</text><text class="cls-54" transform="translate(859.28 817.18) scale(0.58)">1mux0</text><text class="cls-55" transform="translate(522.68 706.56) scale(0.58)">0mux2</text><text class="cls-52" transform="translate(1162.66 872.09) scale(0.58)">0mux1</text><text class="cls-56" transform="translate(566.18 106.84) scale(0.58)">Shift <tspan x="7.79" y="25.73">left </tspan><tspan x="20.74" y="51.46">2</tspan></text><text class="cls-56" transform="translate(797.18 266.84) scale(0.58)">Shift <tspan x="7.79" y="25.73">left </tspan><tspan x="20.74" y="51.46">2</tspan></text><text class="cls-57" transform="translate(422.85 572.14) scale(0.58)">Instruction[31-26]</text><text class="cls-57" transform="translate(425.88 628.14) scale(0.58)">Instruction[25-21]</text><text class="cls-57" transform="translate(425.42 665.14) scale(0.58)">Instruction[20-16]</text><text class="cls-58" transform="translate(424.23 765.31) scale(0.58)">Instruction[15-11]</text><text class="cls-58" transform="translate(430.28 826.31) scale(0.58)">Instruction[15-0]</text><text class="cls-58" transform="translate(430.22 897.31) scale(0.58)">Instruction[10-6]</text><text class="cls-59" transform="translate(584.1 627.14) scale(0.58)">R<tspan class="cls-60" x="12.5" y="0">e</tspan><tspan x="22.74" y="0">ad </tspan><tspan x="-18.99" y="25.73">Regis</tspan><tspan class="cls-61" x="28.69" y="25.73">t</tspan><tspan class="cls-62" x="35.25" y="25.73">er 1</tspan></text><text class="cls-59" transform="translate(584.1 666.14) scale(0.58)">R<tspan class="cls-60" x="12.5" y="0">e</tspan><tspan x="22.74" y="0">ad </tspan><tspan x="-21.26" y="25.73">Regis</tspan><tspan class="cls-61" x="26.42" y="25.73">t</tspan><tspan class="cls-62" x="32.98" y="25.73">er 2</tspan></text><text class="cls-59" transform="translate(581.18 717.14) scale(0.58)">Wri<tspan class="cls-61" x="30.56" y="0">t</tspan><tspan class="cls-62" x="37.12" y="0">e </tspan><tspan x="-12.05" y="25.73">Regis</tspan><tspan class="cls-61" x="35.62" y="25.73">t</tspan><tspan class="cls-62" x="42.18" y="25.73">er</tspan></text><text class="cls-59" transform="translate(573.12 760.89) scale(0.58)">Wri<tspan class="cls-61" x="30.56" y="0">t</tspan><tspan class="cls-62" x="37.12" y="0">e Da</tspan><tspan class="cls-63" x="76.57" y="0">t</tspan><tspan class="cls-62" x="83.2" y="0">a</tspan></text><text class="cls-59" transform="translate(665.6 625.67) scale(0.58)">R<tspan class="cls-60" x="12.5" y="0">e</tspan><tspan x="22.74" y="0">ad</tspan><tspan x="-3.78" y="25.73">Da</tspan><tspan class="cls-63" x="20.49" y="25.73">t</tspan><tspan x="27.13" y="25.73">a 1</tspan></text><text class="cls-59" transform="translate(664.1 712.39) scale(0.58)">R<tspan class="cls-60" x="12.5" y="0">e</tspan><tspan x="22.74" y="0">ad</tspan><tspan x="-6.05" y="25.73">Da</tspan><tspan class="cls-63" x="18.22" y="25.73">t</tspan><tspan x="24.85" y="25.73">a 2</tspan></text><text class="cls-52" transform="translate(757.92 704.98) scale(0.58)">0<tspan x="6" y="21.08"> </tspan><tspan x="0" y="25.62">mux</tspan><tspan x="6" y="88.87"> </tspan><tspan x="0" y="93.41">1</tspan></text><text class="cls-59" transform="translate(933.73 685.89) scale(0.58)">A<tspan class="cls-64" x="12.15" y="0">d</tspan><tspan x="23.31" y="0">d</tspan><tspan class="cls-65" x="34.62" y="0">r</tspan><tspan class="cls-62" x="41.43" y="0">ess</tspan></text><text class="cls-59" transform="translate(934.28 787.89) scale(0.58)">Wri<tspan class="cls-61" x="30.56" y="0">t</tspan><tspan class="cls-62" x="37.12" y="0">e Da</tspan><tspan class="cls-63" x="76.57" y="0">t</tspan><tspan class="cls-62" x="83.2" y="0">a</tspan></text><text class="cls-59" transform="translate(1012.1 681.89) scale(0.58)">R<tspan class="cls-60" x="12.5" y="0">e</tspan><tspan x="22.74" y="0">ad</tspan><tspan x="1.57" y="17.15">Da</tspan><tspan class="cls-63" x="25.84" y="17.15">t</tspan><tspan x="32.48" y="17.15">a</tspan></text><line class="cls-13" x1="443.04" y1="160" x2="664.91" y2="160"/><line class="cls-13" x1="664.91" y1="160" x2="664.91" y2="116"/><text class="cls-57" transform="translate(391.48 111.14) scale(0.58)">Instruction[25-0]</text><text class="cls-57" transform="translate(445.81 156.14) scale(0.58)">PC+4[31-28]</text><text class="cls-57" transform="translate(669.15 110.76) scale(0.58)">Jump A<tspan class="cls-66" x="69.67" y="0">d</tspan><tspan class="cls-67" x="82.59" y="0">d</tspan><tspan class="cls-68" x="95.69" y="0">r</tspan><tspan class="cls-69" x="103.57" y="0">ess [31-0]</tspan></text><line class="cls-70" x1="550.17" y1="107" x2="540" y2="127.72"/><line class="cls-70" x1="624.17" y1="107" x2="614" y2="127.72"/><text class="cls-71" transform="translate(531.39 110.39) scale(0.58)">26</text><text class="cls-71" transform="translate(625.44 111.39) scale(0.58)">28</text><line class="cls-70" x1="599.17" y1="820" x2="589" y2="840.72"/><line class="cls-70" x1="676.17" y1="820" x2="666" y2="840.72"/><text class="cls-71" transform="translate(579.75 827.73) scale(0.58)">16</text><text class="cls-71" transform="translate(678.57 827.73) scale(0.58)">32</text><line class="cls-4" x1="494.13" y1="504.87" x2="52" y2="504.87"/><line class="cls-2" x1="52" y1="504.87" x2="52" y2="983"/><line class="cls-2" x1="52" y1="983" x2="955" y2="983"/><line class="cls-2" x1="955" y1="983" x2="955" y2="808.26"/><text class="cls-72" transform="translate(428.9 500.88) scale(0.58)">M<tspan class="cls-31" x="19.54" y="0">em</tspan><tspan class="cls-73" x="51.77" y="0">R</tspan><tspan class="cls-31" x="64.87" y="0">ead</tspan></text><text class="cls-74" transform="translate(499.8 462.19) scale(0.58)">C<tspan class="cls-75" x="20.06" y="0">o</tspan><tspan class="cls-76" x="39.41" y="0">n</tspan><tspan class="cls-75" x="58.83" y="0">t</tspan><tspan class="cls-77" x="70.56" y="0">r</tspan><tspan class="cls-75" x="81.79" y="0">ol</tspan></text><text class="cls-78" transform="translate(778.91 828.29) scale(0.58)">ALU<tspan x="-19.79" y="18.87">CONTROL</tspan></text><text class="cls-78" transform="translate(872.07 740.2) rotate(-90) scale(0.58)">Shamt</text><text class="cls-78" transform="translate(866.24 661.82) scale(0.58)">Ze<tspan class="cls-79" x="15.78" y="0">r</tspan><tspan class="cls-50" x="20.8" y="0">o</tspan></text><text class="cls-78" transform="translate(860.9 685.32) scale(0.58)">Result</text></svg>