<svg xmlns="http://www.w3.org/2000/svg" viewBox="0 0 1817.91 1630.42"><defs><style>.cls-1,.cls-6,.cls-7{fill:#fff;}.cls-11,.cls-2{font-size:24px;}.cls-2{font-family:MyanmarText, Myanmar Text;}.cls-3,.cls-5{fill:none;}.cls-3,.cls-4,.cls-5,.cls-6,.cls-7{stroke:#000;}.cls-16,.cls-3,.cls-4,.cls-5,.cls-6,.cls-7{stroke-miterlimit:10;}.cls-16,.cls-4,.cls-5,.cls-6{stroke-width:2px;}.cls-8{font-size:28px;}.cls-11,.cls-12,.cls-13,.cls-14,.cls-8{font-family:FootlightMTLight, Footlight MT Light;}.cls-9{letter-spacing:-0.02em;}.cls-10{letter-spacing:-0.01em;}.cls-12{font-size:26px;}.cls-13{font-size:26.47px;}.cls-14{font-size:23px;}.cls-15{letter-spacing:0.01em;}.cls-16{stroke:#fff;}</style></defs><title>Artboard 1</title><g id="Layer_20" data-name="Layer 20"><rect class="cls-1" y="-11.1" width="1814.52" height="1655.02"/></g><g id="Layer_22" data-name="Layer 22"><text class="cls-2" transform="translate(23.87 32.01)">OpCode5</text><text class="cls-2" transform="translate(23.87 75.51)">OpCode4</text><text class="cls-2" transform="translate(23.87 119.01)">OpCode3</text><text class="cls-2" transform="translate(23.87 162.51)">OpCode2</text><text class="cls-2" transform="translate(23.87 206.01)">OpCode1</text><text class="cls-2" transform="translate(23.87 249.5)">OpCode0</text><line class="cls-3" x1="155.32" y1="25.12" x2="1413.98" y2="25.21"/><line class="cls-3" x1="154.02" y1="68.62" x2="1421.87" y2="68.62"/><line class="cls-3" x1="155.32" y1="112.12" x2="1433.31" y2="112.21"/><line class="cls-3" x1="155.32" y1="156.62" x2="1441.2" y2="156.61"/><line class="cls-3" x1="155.32" y1="199.12" x2="1449.09" y2="199.21"/><line class="cls-3" x1="155.32" y1="242.61" x2="1454.44" y2="242.61"/><circle cx="306.44" cy="242.61" r="3.73"/><circle cx="298.15" cy="199.21" r="3.73"/><circle cx="289.86" cy="156.61" r="3.73"/><circle cx="281.58" cy="112.21" r="3.73"/><circle cx="273.3" cy="68.62" r="3.73"/><circle cx="265.01" cy="25.21" r="3.73"/><line class="cls-4" x1="265.01" y1="25.21" x2="265.01" y2="277.94"/><line class="cls-5" x1="273.3" y1="68.62" x2="273.3" y2="277.94"/><line class="cls-5" x1="281.58" y1="112.21" x2="281.58" y2="277.94"/><line class="cls-5" x1="289.86" y1="156.61" x2="289.86" y2="277.94"/><line class="cls-5" x1="298.15" y1="199.21" x2="298.15" y2="278.92"/><line class="cls-5" x1="306.44" y1="242.61" x2="306.44" y2="278.92"/><circle cx="370.44" cy="242.61" r="3.73"/><circle cx="362.15" cy="199.21" r="3.73"/><circle cx="353.86" cy="156.61" r="3.73"/><circle cx="345.58" cy="112.21" r="3.73"/><circle cx="337.3" cy="68.62" r="3.73"/><circle cx="329.01" cy="25.21" r="3.73"/><line class="cls-4" x1="329.01" y1="25.21" x2="329.01" y2="277.94"/><line class="cls-5" x1="337.3" y1="68.62" x2="337.3" y2="277.94"/><line class="cls-5" x1="345.58" y1="112.21" x2="345.58" y2="277.94"/><line class="cls-5" x1="353.86" y1="156.61" x2="353.86" y2="277.94"/><line class="cls-5" x1="362.15" y1="199.21" x2="362.15" y2="278.92"/><line class="cls-5" x1="370.44" y1="242.61" x2="370.44" y2="278.92"/><circle cx="434.44" cy="242.61" r="3.73"/><circle cx="426.15" cy="199.21" r="3.73"/><circle cx="417.86" cy="156.61" r="3.73"/><circle cx="409.58" cy="112.21" r="3.73"/><circle cx="401.3" cy="68.62" r="3.73"/><circle cx="393.01" cy="25.21" r="3.73"/><line class="cls-4" x1="393.01" y1="25.21" x2="393.01" y2="277.94"/><line class="cls-5" x1="401.3" y1="68.62" x2="401.3" y2="277.94"/><line class="cls-5" x1="409.58" y1="112.21" x2="409.58" y2="277.94"/><line class="cls-5" x1="417.86" y1="156.61" x2="417.86" y2="277.94"/><line class="cls-5" x1="426.15" y1="199.21" x2="426.15" y2="278.92"/><line class="cls-5" x1="434.44" y1="242.61" x2="434.44" y2="278.92"/><circle cx="498.44" cy="242.61" r="3.73"/><circle cx="490.15" cy="199.21" r="3.73"/><circle cx="481.86" cy="156.61" r="3.73"/><circle cx="473.58" cy="112.21" r="3.73"/><circle cx="465.3" cy="68.62" r="3.73"/><circle cx="457.01" cy="25.21" r="3.73"/><line class="cls-4" x1="457.01" y1="25.21" x2="457.01" y2="277.94"/><line class="cls-5" x1="465.3" y1="68.62" x2="465.3" y2="277.94"/><line class="cls-5" x1="473.58" y1="112.21" x2="473.58" y2="277.94"/><line class="cls-5" x1="481.86" y1="156.61" x2="481.86" y2="277.94"/><line class="cls-5" x1="490.15" y1="199.21" x2="490.15" y2="278.92"/><line class="cls-5" x1="498.44" y1="242.61" x2="498.44" y2="278.92"/><circle cx="561.44" cy="242.61" r="3.73"/><circle cx="553.15" cy="199.21" r="3.73"/><circle cx="544.86" cy="156.61" r="3.73"/><circle cx="536.58" cy="112.21" r="3.73"/><circle cx="528.3" cy="68.62" r="3.73"/><circle cx="520.01" cy="25.21" r="3.73"/><line class="cls-4" x1="520.01" y1="25.21" x2="520.01" y2="277.94"/><line class="cls-5" x1="528.3" y1="68.62" x2="528.3" y2="277.94"/><line class="cls-5" x1="536.58" y1="112.21" x2="536.58" y2="277.94"/><line class="cls-5" x1="544.86" y1="156.61" x2="544.86" y2="277.94"/><line class="cls-5" x1="553.15" y1="199.21" x2="553.15" y2="278.92"/><line class="cls-5" x1="561.44" y1="242.61" x2="561.44" y2="278.92"/><g id="Layer_2" data-name="Layer 2"><line class="cls-3" x1="349.58" y1="352.1" x2="349.58" y2="1577.88"/><line class="cls-3" x1="349.58" y1="353.41" x2="349.58" y2="1579.19"/><line class="cls-3" x1="349.58" y1="354.72" x2="349.58" y2="1580.5"/><line class="cls-3" x1="349.58" y1="356.03" x2="349.58" y2="1581.81"/><line class="cls-3" x1="349.58" y1="357.34" x2="349.58" y2="1583.12"/><path class="cls-6" d="M349.58,352.1A24.39,24.39,0,0,0,374,327.7V278.92H325.19V327.7A24.39,24.39,0,0,0,349.58,352.1Z"/><circle class="cls-7" cx="337.1" cy="274.21" r="3.73"/><circle class="cls-7" cx="345.38" cy="274.21" r="3.73"/><circle class="cls-7" cx="353.67" cy="274.21" r="3.73"/></g><circle cx="625.44" cy="242.61" r="3.73"/><circle cx="617.15" cy="199.21" r="3.73"/><circle cx="608.86" cy="156.61" r="3.73"/><circle cx="600.58" cy="112.21" r="3.73"/><circle cx="592.3" cy="68.62" r="3.73"/><circle cx="584.01" cy="25.21" r="3.73"/><line class="cls-4" x1="584.01" y1="25.21" x2="584.01" y2="277.94"/><line class="cls-5" x1="592.3" y1="68.62" x2="592.3" y2="277.94"/><line class="cls-5" x1="600.58" y1="112.21" x2="600.58" y2="277.94"/><line class="cls-5" x1="608.86" y1="156.61" x2="608.86" y2="277.94"/><line class="cls-5" x1="617.15" y1="199.21" x2="617.15" y2="278.92"/><line class="cls-5" x1="625.44" y1="242.61" x2="625.44" y2="278.92"/><circle cx="689.44" cy="242.61" r="3.73"/><circle cx="681.15" cy="199.21" r="3.73"/><circle cx="672.86" cy="156.61" r="3.73"/><circle cx="664.58" cy="112.21" r="3.73"/><circle cx="656.3" cy="68.62" r="3.73"/><circle cx="648.01" cy="25.21" r="3.73"/><line class="cls-4" x1="648.01" y1="25.21" x2="648.01" y2="277.94"/><line class="cls-5" x1="656.3" y1="68.62" x2="656.3" y2="277.94"/><line class="cls-5" x1="664.58" y1="112.21" x2="664.58" y2="277.94"/><line class="cls-5" x1="672.86" y1="156.61" x2="672.86" y2="277.94"/><line class="cls-5" x1="681.15" y1="199.21" x2="681.15" y2="278.92"/><line class="cls-5" x1="689.44" y1="242.61" x2="689.44" y2="278.92"/><circle cx="753.44" cy="242.61" r="3.73"/><circle cx="745.15" cy="199.21" r="3.73"/><circle cx="736.86" cy="156.61" r="3.73"/><circle cx="728.58" cy="112.21" r="3.73"/><circle cx="720.3" cy="68.62" r="3.73"/><circle cx="712.01" cy="25.21" r="3.73"/><line class="cls-4" x1="712.01" y1="25.21" x2="712.01" y2="277.94"/><line class="cls-5" x1="720.3" y1="68.62" x2="720.3" y2="277.94"/><line class="cls-5" x1="728.58" y1="112.21" x2="728.58" y2="277.94"/><line class="cls-5" x1="736.86" y1="156.61" x2="736.86" y2="277.94"/><line class="cls-5" x1="745.15" y1="199.21" x2="745.15" y2="278.92"/><line class="cls-5" x1="753.44" y1="242.61" x2="753.44" y2="278.92"/><circle cx="817.44" cy="242.61" r="3.73"/><circle cx="809.15" cy="199.21" r="3.73"/><circle cx="800.86" cy="156.61" r="3.73"/><circle cx="792.58" cy="112.21" r="3.73"/><circle cx="784.3" cy="68.62" r="3.73"/><circle cx="776.01" cy="25.21" r="3.73"/><line class="cls-4" x1="776.01" y1="25.21" x2="776.01" y2="277.94"/><line class="cls-5" x1="784.3" y1="68.62" x2="784.3" y2="277.94"/><line class="cls-5" x1="792.58" y1="112.21" x2="792.58" y2="277.94"/><line class="cls-5" x1="800.86" y1="156.61" x2="800.86" y2="277.94"/><line class="cls-5" x1="809.15" y1="199.21" x2="809.15" y2="278.92"/><line class="cls-5" x1="817.44" y1="242.61" x2="817.44" y2="278.92"/><circle cx="880.44" cy="242.61" r="3.73"/><circle cx="872.15" cy="199.21" r="3.73"/><circle cx="863.86" cy="156.61" r="3.73"/><circle cx="855.58" cy="112.21" r="3.73"/><circle cx="847.3" cy="68.62" r="3.73"/><circle cx="839.01" cy="25.21" r="3.73"/><line class="cls-4" x1="839.01" y1="25.21" x2="839.01" y2="277.94"/><line class="cls-5" x1="847.3" y1="68.62" x2="847.3" y2="277.94"/><line class="cls-5" x1="855.58" y1="112.21" x2="855.58" y2="277.94"/><line class="cls-5" x1="863.86" y1="156.61" x2="863.86" y2="277.94"/><line class="cls-5" x1="872.15" y1="199.21" x2="872.15" y2="278.92"/><line class="cls-5" x1="880.44" y1="242.61" x2="880.44" y2="278.92"/><circle cx="944.44" cy="242.61" r="3.73"/><circle cx="936.15" cy="199.21" r="3.73"/><circle cx="927.86" cy="156.61" r="3.73"/><circle cx="919.58" cy="112.21" r="3.73"/><circle cx="911.3" cy="68.62" r="3.73"/><circle cx="903.01" cy="25.21" r="3.73"/><line class="cls-4" x1="903.01" y1="25.21" x2="903.01" y2="277.94"/><line class="cls-5" x1="911.3" y1="68.62" x2="911.3" y2="277.94"/><line class="cls-5" x1="919.58" y1="112.21" x2="919.58" y2="277.94"/><line class="cls-5" x1="927.86" y1="156.61" x2="927.86" y2="277.94"/><line class="cls-5" x1="936.15" y1="199.21" x2="936.15" y2="278.92"/><line class="cls-5" x1="944.44" y1="242.61" x2="944.44" y2="278.92"/><circle cx="1008.44" cy="242.61" r="3.73"/><circle cx="1000.15" cy="199.21" r="3.73"/><circle cx="991.86" cy="156.61" r="3.73"/><circle cx="983.58" cy="112.21" r="3.73"/><circle cx="975.3" cy="68.62" r="3.73"/><circle cx="967.01" cy="25.21" r="3.73"/><line class="cls-4" x1="967.01" y1="25.21" x2="967.01" y2="277.94"/><line class="cls-5" x1="975.3" y1="68.62" x2="975.3" y2="277.94"/><line class="cls-5" x1="983.58" y1="112.21" x2="983.58" y2="277.94"/><line class="cls-5" x1="991.86" y1="156.61" x2="991.86" y2="277.94"/><line class="cls-5" x1="1000.15" y1="199.21" x2="1000.15" y2="278.92"/><line class="cls-5" x1="1008.44" y1="242.61" x2="1008.44" y2="278.92"/><circle cx="1072.44" cy="242.61" r="3.73"/><circle cx="1064.15" cy="199.21" r="3.73"/><circle cx="1055.86" cy="156.61" r="3.73"/><circle cx="1047.58" cy="112.21" r="3.73"/><circle cx="1039.3" cy="68.62" r="3.73"/><circle cx="1031.01" cy="25.21" r="3.73"/><line class="cls-4" x1="1031.01" y1="25.21" x2="1031.01" y2="277.94"/><line class="cls-5" x1="1039.3" y1="68.62" x2="1039.3" y2="277.94"/><line class="cls-5" x1="1047.58" y1="112.21" x2="1047.58" y2="277.94"/><line class="cls-5" x1="1055.86" y1="156.61" x2="1055.86" y2="277.94"/><line class="cls-5" x1="1064.15" y1="199.21" x2="1064.15" y2="278.92"/><line class="cls-5" x1="1072.44" y1="242.61" x2="1072.44" y2="278.92"/><circle cx="1135.44" cy="242.61" r="3.73"/><circle cx="1127.15" cy="199.21" r="3.73"/><circle cx="1118.86" cy="156.61" r="3.73"/><circle cx="1110.58" cy="112.21" r="3.73"/><circle cx="1102.3" cy="68.62" r="3.73"/><circle cx="1094.01" cy="25.21" r="3.73"/><line class="cls-4" x1="1094.01" y1="25.21" x2="1094.01" y2="277.94"/><line class="cls-5" x1="1102.3" y1="68.62" x2="1102.3" y2="277.94"/><line class="cls-5" x1="1110.58" y1="112.21" x2="1110.58" y2="277.94"/><line class="cls-5" x1="1118.86" y1="156.61" x2="1118.86" y2="277.94"/><line class="cls-5" x1="1127.15" y1="199.21" x2="1127.15" y2="278.92"/><line class="cls-5" x1="1135.44" y1="242.61" x2="1135.44" y2="278.92"/><g id="Layer_3" data-name="Layer 3"><line class="cls-3" x1="413.38" y1="352.1" x2="413.38" y2="1577.88"/><line class="cls-3" x1="413.38" y1="353.41" x2="413.38" y2="1579.19"/><line class="cls-3" x1="413.38" y1="354.72" x2="413.38" y2="1580.5"/><line class="cls-3" x1="413.38" y1="356.03" x2="413.38" y2="1581.81"/><line class="cls-3" x1="413.38" y1="357.34" x2="413.38" y2="1583.12"/><path class="cls-6" d="M413.38,352.1a24.39,24.39,0,0,0,24.39-24.39V278.92H389V327.7A24.39,24.39,0,0,0,413.38,352.1Z"/><circle class="cls-7" cx="400.9" cy="274.21" r="3.73"/><circle class="cls-7" cx="417.47" cy="274.21" r="3.73"/></g><circle cx="1199.44" cy="242.61" r="3.73"/><circle cx="1191.15" cy="199.21" r="3.73"/><circle cx="1182.86" cy="156.61" r="3.73"/><circle cx="1174.58" cy="112.21" r="3.73"/><circle cx="1166.3" cy="68.62" r="3.73"/><circle cx="1158.01" cy="25.21" r="3.73"/><line class="cls-4" x1="1158.01" y1="25.21" x2="1158.01" y2="277.94"/><line class="cls-5" x1="1166.3" y1="68.62" x2="1166.3" y2="277.94"/><line class="cls-5" x1="1174.58" y1="112.21" x2="1174.58" y2="277.94"/><line class="cls-5" x1="1182.86" y1="156.61" x2="1182.86" y2="277.94"/><line class="cls-5" x1="1191.15" y1="199.21" x2="1191.15" y2="278.92"/><line class="cls-5" x1="1199.44" y1="242.61" x2="1199.44" y2="278.92"/><circle cx="1263.44" cy="242.61" r="3.73"/><circle cx="1255.15" cy="199.21" r="3.73"/><circle cx="1246.86" cy="156.61" r="3.73"/><circle cx="1238.58" cy="112.21" r="3.73"/><circle cx="1230.3" cy="68.62" r="3.73"/><circle cx="1222.01" cy="25.21" r="3.73"/><line class="cls-4" x1="1222.01" y1="25.21" x2="1222.01" y2="277.94"/><line class="cls-5" x1="1230.3" y1="68.62" x2="1230.3" y2="277.94"/><line class="cls-5" x1="1238.58" y1="112.21" x2="1238.58" y2="277.94"/><line class="cls-5" x1="1246.86" y1="156.61" x2="1246.86" y2="277.94"/><line class="cls-5" x1="1255.15" y1="199.21" x2="1255.15" y2="278.92"/><line class="cls-5" x1="1263.44" y1="242.61" x2="1263.44" y2="278.92"/><circle cx="1327.44" cy="242.61" r="3.73"/><circle cx="1319.15" cy="199.21" r="3.73"/><circle cx="1310.86" cy="156.61" r="3.73"/><circle cx="1302.58" cy="112.21" r="3.73"/><circle cx="1294.3" cy="68.62" r="3.73"/><circle cx="1286.01" cy="25.21" r="3.73"/><line class="cls-4" x1="1286.01" y1="25.21" x2="1286.01" y2="277.94"/><line class="cls-5" x1="1294.3" y1="68.62" x2="1294.3" y2="277.94"/><line class="cls-5" x1="1302.58" y1="112.21" x2="1302.58" y2="277.94"/><line class="cls-5" x1="1310.86" y1="156.61" x2="1310.86" y2="277.94"/><line class="cls-5" x1="1319.15" y1="199.21" x2="1319.15" y2="278.92"/><line class="cls-5" x1="1327.44" y1="242.61" x2="1327.44" y2="278.92"/><circle cx="1391.44" cy="242.61" r="3.73"/><circle cx="1383.15" cy="199.21" r="3.73"/><circle cx="1374.86" cy="156.61" r="3.73"/><circle cx="1366.58" cy="112.21" r="3.73"/><circle cx="1358.3" cy="68.62" r="3.73"/><circle cx="1350.01" cy="25.21" r="3.73"/><line class="cls-4" x1="1350.01" y1="25.21" x2="1350.01" y2="277.94"/><line class="cls-5" x1="1358.3" y1="68.62" x2="1358.3" y2="277.94"/><line class="cls-5" x1="1366.58" y1="112.21" x2="1366.58" y2="277.94"/><line class="cls-5" x1="1374.86" y1="156.61" x2="1374.86" y2="277.94"/><line class="cls-5" x1="1383.15" y1="199.21" x2="1383.15" y2="278.92"/><line class="cls-5" x1="1391.44" y1="242.61" x2="1391.44" y2="278.92"/><circle cx="1454.44" cy="242.61" r="3.73"/><circle cx="1446.15" cy="199.21" r="3.73"/><circle cx="1437.86" cy="156.61" r="3.73"/><circle cx="1429.58" cy="112.21" r="3.73"/><circle cx="1421.3" cy="68.62" r="3.73"/><circle cx="1413.01" cy="25.21" r="3.73"/><line class="cls-4" x1="1413.01" y1="25.21" x2="1413.01" y2="277.94"/><line class="cls-5" x1="1421.3" y1="68.62" x2="1421.3" y2="277.94"/><line class="cls-5" x1="1429.58" y1="112.21" x2="1429.58" y2="277.94"/><line class="cls-5" x1="1437.86" y1="156.61" x2="1437.86" y2="277.94"/><line class="cls-5" x1="1446.15" y1="199.21" x2="1446.15" y2="278.92"/><line class="cls-5" x1="1454.44" y1="242.61" x2="1454.44" y2="278.92"/></g><g id="Layer_4" data-name="Layer 4"><line class="cls-3" x1="477.18" y1="352.1" x2="477.18" y2="1576.93"/><line class="cls-3" x1="477.18" y1="353.41" x2="477.18" y2="1578.24"/><line class="cls-3" x1="477.18" y1="354.72" x2="477.18" y2="1579.55"/><line class="cls-3" x1="477.18" y1="356.03" x2="477.18" y2="1580.86"/><line class="cls-3" x1="477.18" y1="357.34" x2="477.18" y2="1582.17"/><path class="cls-6" d="M477.18,352.1a24.39,24.39,0,0,0,24.39-24.39V278.92H452.79V327.7A24.39,24.39,0,0,0,477.18,352.1Z"/><circle class="cls-7" cx="456.41" cy="274.21" r="3.73"/><circle class="cls-7" cx="464.7" cy="274.21" r="3.73"/><circle class="cls-7" cx="472.98" cy="274.21" r="3.73"/><circle class="cls-7" cx="489.56" cy="274.21" r="3.73"/><circle class="cls-7" cx="497.84" cy="274.21" r="3.73"/></g><g id="Layer_5" data-name="Layer 5"><line class="cls-3" x1="540.98" y1="352.1" x2="540.98" y2="1576.93"/><line class="cls-3" x1="540.98" y1="353.41" x2="540.98" y2="1578.24"/><line class="cls-3" x1="540.98" y1="354.72" x2="540.98" y2="1579.55"/><line class="cls-3" x1="540.98" y1="356.03" x2="540.98" y2="1580.86"/><line class="cls-3" x1="540.98" y1="357.34" x2="540.98" y2="1582.17"/><path class="cls-6" d="M541,352.1a24.39,24.39,0,0,0,24.39-24.39V278.92H516.59V327.7A24.39,24.39,0,0,0,541,352.1Z"/><circle class="cls-7" cx="520.21" cy="274.21" r="3.73"/><circle class="cls-7" cx="528.5" cy="274.21" r="3.73"/><circle class="cls-7" cx="536.78" cy="274.21" r="3.73"/><circle class="cls-7" cx="553.36" cy="274.21" r="3.73"/></g><g id="Layer_6" data-name="Layer 6"><line class="cls-3" x1="604.78" y1="352.1" x2="604.78" y2="1576.93"/><line class="cls-3" x1="604.78" y1="353.41" x2="604.78" y2="1578.24"/><line class="cls-3" x1="604.78" y1="354.72" x2="604.78" y2="1579.55"/><line class="cls-3" x1="604.78" y1="356.03" x2="604.78" y2="1580.86"/><line class="cls-3" x1="604.78" y1="357.34" x2="604.78" y2="1582.17"/><path class="cls-6" d="M604.78,352.1a24.39,24.39,0,0,0,24.39-24.39V278.92H580.39V327.7A24.39,24.39,0,0,0,604.78,352.1Z"/><circle class="cls-7" cx="584.01" cy="274.21" r="3.73"/><circle class="cls-7" cx="592.3" cy="274.21" r="3.73"/><circle class="cls-7" cx="608.87" cy="274.21" r="3.73"/><circle class="cls-7" cx="617.16" cy="274.21" r="3.73"/><circle class="cls-7" cx="625.44" cy="274.21" r="3.73"/></g><g id="Layer_7" data-name="Layer 7"><line class="cls-3" x1="668.58" y1="352.1" x2="668.58" y2="1576.93"/><line class="cls-3" x1="668.58" y1="353.41" x2="668.58" y2="1578.24"/><line class="cls-3" x1="668.58" y1="354.72" x2="668.58" y2="1579.55"/><line class="cls-3" x1="668.58" y1="356.03" x2="668.58" y2="1580.86"/><line class="cls-3" x1="668.58" y1="357.34" x2="668.58" y2="1582.17"/><path class="cls-6" d="M668.58,352.1A24.39,24.39,0,0,0,693,327.7V278.92H644.19V327.7A24.39,24.39,0,0,0,668.58,352.1Z"/><circle class="cls-7" cx="647.81" cy="274.21" r="3.73"/><circle class="cls-7" cx="656.1" cy="274.21" r="3.73"/><circle class="cls-7" cx="672.67" cy="274.21" r="3.73"/><circle class="cls-7" cx="689.24" cy="274.21" r="3.73"/></g><g id="Layer_8" data-name="Layer 8"><line class="cls-3" x1="732.38" y1="352.1" x2="732.38" y2="1576.93"/><line class="cls-3" x1="732.38" y1="353.41" x2="732.38" y2="1578.24"/><line class="cls-3" x1="732.38" y1="354.72" x2="732.38" y2="1579.55"/><line class="cls-3" x1="732.38" y1="356.03" x2="732.38" y2="1580.86"/><line class="cls-3" x1="732.38" y1="357.34" x2="732.38" y2="1582.17"/><path class="cls-6" d="M732.38,352.1a24.39,24.39,0,0,0,24.39-24.39V278.92H708V327.7A24.39,24.39,0,0,0,732.38,352.1Z"/><circle class="cls-7" cx="711.62" cy="274.21" r="3.73"/><circle class="cls-7" cx="719.9" cy="274.21" r="3.73"/><circle class="cls-7" cx="736.47" cy="274.21" r="3.73"/></g><g id="Layer_9" data-name="Layer 9"><line class="cls-3" x1="796.18" y1="352.1" x2="796.18" y2="1577.88"/><line class="cls-3" x1="796.18" y1="353.41" x2="796.18" y2="1579.19"/><line class="cls-3" x1="796.18" y1="354.72" x2="796.18" y2="1580.5"/><line class="cls-3" x1="796.18" y1="356.03" x2="796.18" y2="1581.81"/><line class="cls-3" x1="796.18" y1="357.34" x2="796.18" y2="1583.12"/><path class="cls-6" d="M796.18,352.1a24.39,24.39,0,0,0,24.39-24.39V278.92H771.79V327.7A24.39,24.39,0,0,0,796.18,352.1Z"/><circle class="cls-7" cx="775.42" cy="274.21" r="3.73"/><circle class="cls-7" cx="783.7" cy="274.21" r="3.73"/></g><g id="Layer_10" data-name="Layer 10"><line class="cls-3" x1="859.98" y1="352.1" x2="859.98" y2="1577.88"/><line class="cls-3" x1="859.98" y1="353.41" x2="859.98" y2="1579.19"/><line class="cls-3" x1="859.98" y1="354.72" x2="859.98" y2="1580.5"/><line class="cls-3" x1="859.98" y1="356.03" x2="859.98" y2="1581.81"/><line class="cls-3" x1="859.98" y1="357.34" x2="859.98" y2="1583.12"/><path class="cls-6" d="M860,352.1a24.39,24.39,0,0,0,24.39-24.39V278.92H835.59V327.7A24.39,24.39,0,0,0,860,352.1Z"/><circle class="cls-7" cx="839.22" cy="274.21" r="3.73"/><circle class="cls-7" cx="847.5" cy="274.21" r="3.73"/><circle class="cls-7" cx="872.36" cy="274.21" r="3.73"/></g><g id="Layer_11" data-name="Layer 11"><line class="cls-3" x1="923.78" y1="352.1" x2="923.78" y2="1576.93"/><line class="cls-3" x1="923.78" y1="353.41" x2="923.78" y2="1578.24"/><line class="cls-3" x1="923.78" y1="354.72" x2="923.78" y2="1579.55"/><line class="cls-3" x1="923.78" y1="356.03" x2="923.78" y2="1580.86"/><line class="cls-3" x1="923.78" y1="357.34" x2="923.78" y2="1582.17"/><path class="cls-6" d="M923.78,352.1a24.39,24.39,0,0,0,24.39-24.39V278.92H899.39V327.7A24.39,24.39,0,0,0,923.78,352.1Z"/><circle class="cls-7" cx="903.02" cy="274.21" r="3.73"/><circle class="cls-7" cx="911.3" cy="274.21" r="3.73"/><circle class="cls-7" cx="936.16" cy="274.21" r="3.73"/><circle class="cls-7" cx="944.45" cy="274.21" r="3.73"/></g><g id="Layer_12" data-name="Layer 12"><line class="cls-3" x1="987.58" y1="352.1" x2="987.58" y2="1577.88"/><line class="cls-3" x1="987.58" y1="353.41" x2="987.58" y2="1579.19"/><line class="cls-3" x1="987.58" y1="354.72" x2="987.58" y2="1580.5"/><line class="cls-3" x1="987.58" y1="356.03" x2="987.58" y2="1581.81"/><line class="cls-3" x1="987.58" y1="357.34" x2="987.58" y2="1583.12"/><path class="cls-6" d="M987.58,352.1A24.39,24.39,0,0,0,1012,327.7V278.92H963.19V327.7A24.39,24.39,0,0,0,987.58,352.1Z"/><circle class="cls-7" cx="975.1" cy="274.21" r="3.73"/><circle class="cls-7" cx="983.39" cy="274.21" r="3.73"/><circle class="cls-7" cx="991.68" cy="274.21" r="3.73"/><circle class="cls-7" cx="999.96" cy="274.21" r="3.73"/></g><g id="Layer_13" data-name="Layer 13"><line class="cls-3" x1="1051.39" y1="352.1" x2="1051.39" y2="1576.93"/><line class="cls-3" x1="1051.39" y1="353.41" x2="1051.39" y2="1578.24"/><line class="cls-3" x1="1051.39" y1="354.72" x2="1051.39" y2="1579.55"/><line class="cls-3" x1="1051.39" y1="356.03" x2="1051.39" y2="1580.86"/><line class="cls-3" x1="1051.39" y1="357.34" x2="1051.39" y2="1582.17"/><path class="cls-6" d="M1051.39,352.1a24.39,24.39,0,0,0,24.39-24.39V278.92H1027V327.7A24.39,24.39,0,0,0,1051.39,352.1Z"/><circle class="cls-7" cx="1038.9" cy="274.21" r="3.73"/><circle class="cls-7" cx="1047.19" cy="274.21" r="3.73"/><circle class="cls-7" cx="1063.76" cy="274.21" r="3.73"/></g><g id="Layer_14" data-name="Layer 14"><line class="cls-3" x1="1115.19" y1="352.1" x2="1115.19" y2="1576.93"/><line class="cls-3" x1="1115.19" y1="353.41" x2="1115.19" y2="1578.24"/><line class="cls-3" x1="1115.19" y1="354.72" x2="1115.19" y2="1579.55"/><line class="cls-3" x1="1115.19" y1="356.03" x2="1115.19" y2="1580.86"/><line class="cls-3" x1="1115.19" y1="357.34" x2="1115.19" y2="1582.17"/><path class="cls-6" d="M1115.19,352.1a24.39,24.39,0,0,0,24.39-24.39V278.92h-48.78V327.7A24.39,24.39,0,0,0,1115.19,352.1Z"/><circle class="cls-7" cx="1102.71" cy="274.21" r="3.73"/><circle class="cls-7" cx="1110.99" cy="274.21" r="3.73"/><circle class="cls-7" cx="1119.28" cy="274.21" r="3.73"/><circle class="cls-7" cx="1127.56" cy="274.21" r="3.73"/><circle class="cls-7" cx="1135.85" cy="274.21" r="3.73"/></g><g id="Layer_15" data-name="Layer 15"><line class="cls-3" x1="1178.99" y1="352.1" x2="1178.99" y2="1576.93"/><line class="cls-3" x1="1178.99" y1="353.41" x2="1178.99" y2="1578.24"/><line class="cls-3" x1="1178.99" y1="354.72" x2="1178.99" y2="1579.55"/><line class="cls-3" x1="1178.99" y1="356.03" x2="1178.99" y2="1580.86"/><line class="cls-3" x1="1178.99" y1="357.34" x2="1178.99" y2="1582.17"/><path class="cls-6" d="M1179,352.1a24.39,24.39,0,0,0,24.39-24.39V278.92H1154.6V327.7A24.39,24.39,0,0,0,1179,352.1Z"/><circle class="cls-7" cx="1166.51" cy="274.21" r="3.73"/><circle class="cls-7" cx="1174.79" cy="274.21" r="3.73"/><circle class="cls-7" cx="1191.36" cy="274.21" r="3.73"/><circle class="cls-7" cx="1199.65" cy="274.21" r="3.73"/></g><g id="Layer_16" data-name="Layer 16"><line class="cls-3" x1="1242.79" y1="352.1" x2="1242.79" y2="1577.88"/><line class="cls-3" x1="1242.79" y1="353.41" x2="1242.79" y2="1579.19"/><line class="cls-3" x1="1242.79" y1="354.72" x2="1242.79" y2="1580.5"/><line class="cls-3" x1="1242.79" y1="356.03" x2="1242.79" y2="1581.81"/><line class="cls-3" x1="1242.79" y1="357.34" x2="1242.79" y2="1583.12"/><path class="cls-6" d="M1242.79,352.1a24.39,24.39,0,0,0,24.39-24.39V278.92H1218.4V327.7A24.39,24.39,0,0,0,1242.79,352.1Z"/><circle class="cls-7" cx="1230.31" cy="274.21" r="3.73"/><circle class="cls-7" cx="1246.88" cy="274.21" r="3.73"/><circle class="cls-7" cx="1255.16" cy="274.21" r="3.73"/><circle class="cls-7" cx="1263.45" cy="274.21" r="3.73"/></g><g id="Layer_17" data-name="Layer 17"><line class="cls-3" x1="1306.59" y1="352.1" x2="1306.59" y2="1576.93"/><line class="cls-3" x1="1306.59" y1="353.41" x2="1306.59" y2="1578.24"/><line class="cls-3" x1="1306.59" y1="354.72" x2="1306.59" y2="1579.55"/><line class="cls-3" x1="1306.59" y1="356.03" x2="1306.59" y2="1580.86"/><line class="cls-3" x1="1306.59" y1="357.34" x2="1306.59" y2="1582.17"/><path class="cls-6" d="M1306.59,352.1A24.39,24.39,0,0,0,1331,327.7V278.92H1282.2V327.7A24.39,24.39,0,0,0,1306.59,352.1Z"/><circle class="cls-7" cx="1294.11" cy="274.21" r="3.73"/><circle class="cls-7" cx="1310.68" cy="274.21" r="3.73"/><circle class="cls-7" cx="1318.97" cy="274.21" r="3.73"/></g><g id="Layer_18" data-name="Layer 18"><line class="cls-3" x1="1370.39" y1="352.1" x2="1370.39" y2="1577.88"/><line class="cls-3" x1="1370.39" y1="353.41" x2="1370.39" y2="1579.19"/><line class="cls-3" x1="1370.39" y1="354.72" x2="1370.39" y2="1580.5"/><line class="cls-3" x1="1370.39" y1="356.03" x2="1370.39" y2="1581.81"/><line class="cls-3" x1="1370.39" y1="357.34" x2="1370.39" y2="1583.12"/><path class="cls-6" d="M1370.39,352.1a24.39,24.39,0,0,0,24.39-24.39V278.92H1346V327.7A24.39,24.39,0,0,0,1370.39,352.1Z"/><circle class="cls-7" cx="1349.62" cy="274.21" r="3.73"/><circle class="cls-7" cx="1357.91" cy="274.21" r="3.73"/><circle class="cls-7" cx="1366.19" cy="274.21" r="3.73"/><circle class="cls-7" cx="1374.48" cy="274.21" r="3.73"/><circle class="cls-7" cx="1391.05" cy="274.21" r="3.73"/></g><g id="Layer_19" data-name="Layer 19"><line class="cls-3" x1="1434.19" y1="352.1" x2="1434.19" y2="1576.93"/><line class="cls-3" x1="1434.19" y1="353.41" x2="1434.19" y2="1578.24"/><line class="cls-3" x1="1434.19" y1="354.72" x2="1434.19" y2="1579.55"/><line class="cls-3" x1="1434.19" y1="356.03" x2="1434.19" y2="1580.86"/><line class="cls-3" x1="1434.19" y1="357.34" x2="1434.19" y2="1582.17"/><path class="cls-6" d="M1434.19,352.1a24.39,24.39,0,0,0,24.39-24.39V278.92H1409.8V327.7A24.39,24.39,0,0,0,1434.19,352.1Z"/><circle class="cls-7" cx="1413.42" cy="274.21" r="3.73"/><circle class="cls-7" cx="1421.71" cy="274.21" r="3.73"/><circle class="cls-7" cx="1429.99" cy="274.21" r="3.73"/><circle class="cls-7" cx="1438.28" cy="274.21" r="3.73"/></g><g id="Layer_1" data-name="Layer 1"><line class="cls-3" x1="285.78" y1="352.1" x2="285.31" y2="1576.93"/><path class="cls-6" d="M285.78,352.1a24.39,24.39,0,0,0,24.39-24.39V278.92H261.39V327.7A24.39,24.39,0,0,0,285.78,352.1Z"/><circle class="cls-7" cx="265.01" cy="274.21" r="3.73"/><circle class="cls-7" cx="273.3" cy="274.21" r="3.73"/><circle class="cls-7" cx="281.58" cy="274.21" r="3.73"/><circle class="cls-7" cx="289.87" cy="274.21" r="3.73"/><circle class="cls-7" cx="298.15" cy="274.21" r="3.73"/><circle class="cls-7" cx="306.44" cy="274.21" r="3.73"/><line class="cls-3" x1="285.78" y1="353.41" x2="285.31" y2="1578.24"/><line class="cls-3" x1="285.78" y1="354.72" x2="285.31" y2="1579.55"/><line class="cls-3" x1="285.78" y1="356.03" x2="285.31" y2="1580.86"/><line class="cls-3" x1="285.78" y1="357.34" x2="285.31" y2="1582.17"/><text class="cls-8" transform="translate(278.91 307.99)">R<tspan x="-12.11" y="23">fmt</tspan></text><text class="cls-8" transform="translate(335.17 321.99)"><tspan class="cls-9">l</tspan><tspan x="6.89" y="0">w</tspan></text><text class="cls-8" transform="translate(397.9 321.99)"><tspan class="cls-10">s</tspan><tspan x="9.84" y="0">w</tspan></text><text class="cls-8" transform="translate(456.98 321.99)">beq</text><text class="cls-8" transform="translate(524.21 321.99) scale(0.8 1)">bne</text><text class="cls-11" transform="translate(582.93 321.99)">addi</text><text class="cls-8" transform="translate(652.36 321.99)">slti</text><text class="cls-12" transform="translate(710.38 321.99)">sltiu</text><text class="cls-13" transform="translate(780.81 321.99) scale(1.06 1)">lui</text><text class="cls-13" transform="translate(843.32 321.99) scale(1.06 1)">ori</text><text class="cls-14" transform="translate(902.09 321.99) scale(1.06 1)">andi</text><text class="cls-13" transform="translate(975.59 321.99) scale(1.06 1)">lh</text><text class="cls-13" transform="translate(1031.66 321.99) scale(1.06 1)">lhu</text><text class="cls-13" transform="translate(1103.78 321.99) scale(1.06 1)">lb</text><text class="cls-13" transform="translate(1160.51 321.99) scale(1.06 1)">l<tspan class="cls-15" x="7.17" y="0">b</tspan><tspan x="21.01" y="0">u</tspan></text><text class="cls-13" transform="translate(1230.9 321.99) scale(1.06 1)">sb</text><text class="cls-13" transform="translate(1294.3 321.99) scale(1.06 1)">sh</text><text class="cls-13" transform="translate(1367.49 321.99) scale(1.06 1)">j</text><text class="cls-13" transform="translate(1420.19 321.99) scale(1.06 1)">jal</text></g><g id="Layer_23" data-name="Layer 23"><line class="cls-3" x1="1282.2" y1="422.39" x2="285.31" y2="422.39"/><line class="cls-3" x1="1522.3" y1="422.39" x2="1282.2" y2="422.39"/><line class="cls-3" x1="1559.43" y1="422.39" x2="1522.3" y2="422.39"/><line class="cls-3" x1="1596.56" y1="422.39" x2="1559.43" y2="422.39"/><path class="cls-6" d="M1604.18,393.56h-15.7a55.48,55.48,0,0,1,0,57.67h15.7a72.75,72.75,0,0,0,57.94-28.83A72.75,72.75,0,0,0,1604.18,393.56Z"/><line class="cls-5" x1="1662.12" y1="422.39" x2="1817.91" y2="422.39"/><text class="cls-2" transform="translate(1695.46 411.32)">RegDst1</text><circle class="cls-16" cx="1435.86" cy="422.39" r="7.2"/><line class="cls-3" x1="1596.56" y1="1287.19" x2="285.31" y2="1287.19"/><path class="cls-6" d="M1604.18,1258.36h-15.7a55.48,55.48,0,0,1,0,57.67h15.7a72.75,72.75,0,0,0,57.94-28.83A72.75,72.75,0,0,0,1604.18,1258.36Z"/><line class="cls-5" x1="1662.12" y1="1287.19" x2="1817.91" y2="1287.19"/><text class="cls-2" transform="translate(1718.1 1276.59)">BNE</text><circle class="cls-16" cx="540.98" cy="1287.19" r="7.2"/><line class="cls-3" x1="1596.56" y1="1070.99" x2="285.31" y2="1070.99"/><path class="cls-6" d="M1604.18,1042.16h-15.7a55.48,55.48,0,0,1,0,57.67h15.7a72.75,72.75,0,0,0,57.94-28.83A72.75,72.75,0,0,0,1604.18,1042.16Z"/><line class="cls-5" x1="1662.12" y1="1070.99" x2="1817.91" y2="1070.99"/><text class="cls-2" transform="translate(1703.74 1059.93)">Branch</text><circle class="cls-16" cx="478.14" cy="1070.99" r="7.2"/><circle class="cls-16" cx="540.98" cy="1070.33" r="7.2"/><line class="cls-3" x1="1596.56" y1="782.73" x2="285.31" y2="782.73"/><path class="cls-6" d="M1604.18,753.89h-15.7a55.48,55.48,0,0,1,0,57.67h15.7a72.75,72.75,0,0,0,57.94-28.83A72.75,72.75,0,0,0,1604.18,753.89Z"/><line class="cls-5" x1="1662.12" y1="782.73" x2="1817.91" y2="782.73"/><text class="cls-2" transform="translate(1686.01 771.66)">MemRead</text><circle class="cls-16" cx="349.11" cy="782.26" r="7.2"/><circle class="cls-16" cx="988.11" cy="782.26" r="7.2"/><circle class="cls-16" cx="1051.11" cy="782.26" r="7.2"/><circle class="cls-16" cx="1115.11" cy="782.26" r="7.2"/><circle class="cls-16" cx="1180.11" cy="782.26" r="7.2"/><line class="cls-3" x1="1596.56" y1="638.59" x2="286.14" y2="638.59"/><path class="cls-6" d="M1604.18,609.76h-15.7a55.48,55.48,0,0,1,0,57.67h15.7a72.75,72.75,0,0,0,57.94-28.83A72.75,72.75,0,0,0,1604.18,609.76Z"/><line class="cls-5" x1="1662.12" y1="638.59" x2="1817.91" y2="638.59"/><text class="cls-2" transform="translate(1678.8 627.52)">MemToReg</text><circle class="cls-16" cx="350.14" cy="638.59" r="7.2"/><circle class="cls-16" cx="989.14" cy="638.59" r="7.2"/><circle class="cls-16" cx="1052.14" cy="638.59" r="7.2"/><circle class="cls-16" cx="1116.14" cy="638.59" r="7.2"/><circle class="cls-16" cx="1181.14" cy="638.59" r="7.2"/><circle class="cls-16" cx="923.97" cy="711.79" r="7.2"/><line class="cls-3" x1="1596.56" y1="710.66" x2="285.31" y2="710.66"/><path class="cls-6" d="M1604.18,681.83h-15.7a55.48,55.48,0,0,1,0,57.67h15.7a72.75,72.75,0,0,0,57.94-28.83A72.75,72.75,0,0,0,1604.18,681.83Z"/><line class="cls-5" x1="1662.12" y1="710.66" x2="1817.91" y2="710.66"/><text class="cls-2" transform="translate(1690.87 699.59)">RegWrite</text><circle class="cls-16" cx="286.49" cy="710.66" r="7.2"/><circle class="cls-16" cx="349.11" cy="710.66" r="7.2"/><circle class="cls-16" cx="604.78" cy="710.66" r="7.2"/><circle class="cls-16" cx="669.37" cy="710.66" r="7.2"/><circle class="cls-16" cx="733.37" cy="710.66" r="7.2"/><circle class="cls-16" cx="796.42" cy="710.66" r="7.2"/><circle class="cls-16" cx="860.22" cy="710.66" r="7.2"/><circle class="cls-16" cx="988.11" cy="710.66" r="7.2"/><circle class="cls-16" cx="1051.11" cy="710.66" r="7.2"/><circle class="cls-16" cx="1115.11" cy="710.66" r="7.2"/><circle class="cls-16" cx="1180.11" cy="710.66" r="7.2"/><circle class="cls-16" cx="1434.11" cy="710.66" r="7.2"/><line class="cls-3" x1="1596.56" y1="854.79" x2="285.31" y2="854.79"/><path class="cls-6" d="M1604.18,826h-15.7a55.48,55.48,0,0,1,0,57.67h15.7a72.75,72.75,0,0,0,57.94-28.83A72.75,72.75,0,0,0,1604.18,826Z"/><line class="cls-5" x1="1662.12" y1="854.79" x2="1817.91" y2="854.79"/><text class="cls-2" transform="translate(1684.01 843.72)">MemWrite</text><circle class="cls-16" cx="413.38" cy="854.79" r="7.2"/><circle class="cls-16" cx="1243.38" cy="854.79" r="7.2"/><circle class="cls-16" cx="1306.38" cy="854.79" r="7.2"/><circle class="cls-16" cx="923.5" cy="567.66" r="7.2"/><line class="cls-3" x1="1596.56" y1="566.53" x2="285.31" y2="566.53"/><path class="cls-6" d="M1604.18,537.69h-15.7a55.48,55.48,0,0,1,0,57.67h15.7a72.75,72.75,0,0,0,57.94-28.83A72.75,72.75,0,0,0,1604.18,537.69Z"/><line class="cls-5" x1="1662.12" y1="566.53" x2="1817.91" y2="566.53"/><text class="cls-2" transform="translate(1702.3 555.46)">ALUSrc</text><circle class="cls-16" cx="349.11" cy="566.53" r="7.2"/><circle class="cls-16" cx="413.38" cy="566.53" r="7.2"/><circle class="cls-16" cx="604.31" cy="566.53" r="7.2"/><circle class="cls-16" cx="668.9" cy="566.53" r="7.2"/><circle class="cls-16" cx="732.9" cy="566.53" r="7.2"/><circle class="cls-16" cx="795.95" cy="566.53" r="7.2"/><circle class="cls-16" cx="859.75" cy="566.53" r="7.2"/><circle class="cls-16" cx="988.11" cy="566.53" r="7.2"/><circle class="cls-16" cx="1051.11" cy="566.53" r="7.2"/><circle class="cls-16" cx="1115.11" cy="566.53" r="7.2"/><circle class="cls-16" cx="1180.11" cy="566.53" r="7.2"/><circle class="cls-16" cx="1243.38" cy="566.53" r="7.2"/><circle class="cls-16" cx="1306.38" cy="566.53" r="7.2"/><line class="cls-3" x1="1596.56" y1="1143.06" x2="286.14" y2="1143.06"/><path class="cls-6" d="M1604.18,1114.23h-15.7a55.48,55.48,0,0,1,0,57.67h15.7a72.75,72.75,0,0,0,57.94-28.83A72.75,72.75,0,0,0,1604.18,1114.23Z"/><line class="cls-5" x1="1662.12" y1="1143.06" x2="1817.91" y2="1143.06"/><text class="cls-2" transform="translate(1711.56 1131.99)">Jump</text><circle class="cls-16" cx="1371.14" cy="1143.06" r="7.2"/><line class="cls-3" x1="1596.56" y1="1215.13" x2="286.14" y2="1215.13"/><path class="cls-6" d="M1604.18,1186.29h-15.7a55.48,55.48,0,0,1,0,57.67h15.7a72.75,72.75,0,0,0,57.94-28.83A72.75,72.75,0,0,0,1604.18,1186.29Z"/><line class="cls-5" x1="1662.12" y1="1215.13" x2="1817.91" y2="1215.13"/><text class="cls-2" transform="translate(1691.27 1204.54)">Unsigned</text><circle class="cls-16" cx="1052.39" cy="1216.66" r="7.2"/><circle class="cls-16" cx="1180.11" cy="1216.4" r="7.2"/><circle class="cls-16" cx="732.58" cy="1217.66" r="7.2"/><line class="cls-3" x1="1596.56" y1="1511.33" x2="285.31" y2="1511.33"/><path class="cls-6" d="M1604.18,1482.49h-15.7a55.48,55.48,0,0,1,0,57.67h15.7a72.75,72.75,0,0,0,57.94-28.83A72.75,72.75,0,0,0,1604.18,1482.49Z"/><line class="cls-5" x1="1662.12" y1="1511.33" x2="1817.91" y2="1511.33"/><text class="cls-2" transform="translate(1695.82 1500.69)">ALUOp1</text><circle class="cls-16" cx="285.31" cy="1510.92" r="7.2"/><circle class="cls-16" cx="668.67" cy="1511.33" r="7.2"/><circle class="cls-16" cx="732.67" cy="1511.33" r="7.2"/><circle class="cls-16" cx="860.22" cy="1511.26" r="7.2"/><line class="cls-3" x1="1596.56" y1="1439.26" x2="285.31" y2="1439.26"/><path class="cls-6" d="M1604.18,1410.43h-15.7a55.48,55.48,0,0,1,0,57.67h15.7a72.75,72.75,0,0,0,57.94-28.83A72.75,72.75,0,0,0,1604.18,1410.43Z"/><line class="cls-5" x1="1662.12" y1="1439.26" x2="1817.91" y2="1439.26"/><text class="cls-2" transform="translate(1695.82 1428.64)">ALUOp2</text><circle class="cls-16" cx="797.14" cy="1440.8" r="7.2"/><circle class="cls-16" cx="860.22" cy="1439.26" r="7.2"/><circle class="cls-16" cx="923.78" cy="1440.8" r="7.2"/><line class="cls-3" x1="1596.56" y1="1583.39" x2="285.31" y2="1583.39"/><path class="cls-6" d="M1604.18,1554.56h-15.7a55.48,55.48,0,0,1,0,57.67h15.7a72.75,72.75,0,0,0,57.94-28.83A72.75,72.75,0,0,0,1604.18,1554.56Z"/><line class="cls-5" x1="1662.61" y1="1584.12" x2="1818.39" y2="1584.12"/><text class="cls-2" transform="translate(1697.3 1573.48)">ALUOp0</text><circle class="cls-16" cx="478.14" cy="1584.12" r="7.2"/><circle class="cls-16" cx="540.31" cy="1584.12" r="7.2"/><circle class="cls-16" cx="669.31" cy="1583.12" r="7.2"/><circle class="cls-16" cx="733.31" cy="1583.12" r="7.2"/><circle class="cls-16" cx="923.78" cy="1583.8" r="7.2"/><line class="cls-3" x1="1486.05" y1="494.46" x2="285.31" y2="494.46"/><line class="cls-3" x1="1543.38" y1="494.46" x2="1486.05" y2="494.46"/><line class="cls-3" x1="1559.43" y1="494.46" x2="1543.38" y2="494.46"/><line class="cls-3" x1="1596.56" y1="494.46" x2="1559.43" y2="494.46"/><path class="cls-6" d="M1604.18,523.29a72.75,72.75,0,0,0,57.94-28.83,72.75,72.75,0,0,0-57.94-28.83h-15.7a55.48,55.48,0,0,1,0,57.67h15.7"/><line class="cls-5" x1="1662.12" y1="494.46" x2="1817.91" y2="494.46"/><text class="cls-2" transform="translate(1695.46 483.39)">RegDst0</text><circle class="cls-16" cx="285.86" cy="494.46" r="7.2"/><line class="cls-3" x1="1596.56" y1="926.86" x2="285.31" y2="926.86"/><path class="cls-6" d="M1604.18,898h-15.7a55.48,55.48,0,0,1,0,57.67h15.7a72.75,72.75,0,0,0,57.94-28.83A72.75,72.75,0,0,0,1604.18,898Z"/><line class="cls-5" x1="1662.12" y1="926.86" x2="1817.91" y2="926.86"/><text class="cls-2" transform="translate(1681.48 915.79)">MemData1</text><circle class="cls-16" cx="1243.38" cy="926.86" r="7.2"/><circle class="cls-16" cx="1179.38" cy="926.86" r="7.2"/><circle class="cls-16" cx="1114.38" cy="926.86" r="7.2"/><line class="cls-3" x1="1596.56" y1="998.93" x2="285.31" y2="998.93"/><path class="cls-6" d="M1604.18,970.09h-15.7a55.48,55.48,0,0,1,0,57.67h15.7a72.75,72.75,0,0,0,57.94-28.83A72.75,72.75,0,0,0,1604.18,970.09Z"/><line class="cls-5" x1="1662.12" y1="998.93" x2="1817.91" y2="998.93"/><text class="cls-2" transform="translate(1681.48 987.86)">MemData0</text><circle class="cls-16" cx="1306.38" cy="998.93" r="7.2"/><circle class="cls-16" cx="987.38" cy="998.93" r="7.2"/><circle class="cls-16" cx="1051.38" cy="998.93" r="7.2"/><line class="cls-3" x1="1596.56" y1="1359.26" x2="285.31" y2="1359.26"/><path class="cls-6" d="M1604.18,1330.43h-15.7a55.48,55.48,0,0,1,0,57.67h15.7a72.75,72.75,0,0,0,57.94-28.83A72.75,72.75,0,0,0,1604.18,1330.43Z"/><line class="cls-5" x1="1662.12" y1="1359.26" x2="1817.91" y2="1359.26"/><text class="cls-2" transform="translate(1722.94 1348.66)">LUI</text><circle class="cls-16" cx="795.98" cy="1359.26" r="7.2"/></g></svg>